<svg width="18" height="19" viewBox="0 0 18 19" fill="none" xmlns="http://www.w3.org/2000/svg">
<path d="M15.2734 15.6396H12.6331V11.5046C12.6331 10.5185 12.6157 9.24919 11.26 9.24919C9.88488 9.24919 9.67445 10.3235 9.67445 11.4328V15.6392H7.03433V7.136H9.56888V8.29805H9.60442C10.1205 7.41561 11.0836 6.88661 12.1051 6.92454C14.7811 6.92454 15.2746 8.68479 15.2746 10.9748L15.2734 15.6396ZM4.05528 5.97364C3.21477 5.97364 2.5228 5.28203 2.5228 4.44144C2.5228 3.60086 3.21444 2.90917 4.05496 2.90917C4.8954 2.90917 5.58695 3.6007 5.58712 4.44112C5.58712 5.28155 4.89564 5.97356 4.05528 5.97364ZM5.37536 15.6396H2.73241V7.136H5.37536V15.6396ZM16.5896 0.457144H1.40564C0.692878 0.449094 0.0995075 1.02872 0.0908203 1.74153V16.9897C0.0991891 17.703 0.692474 18.2833 1.40564 18.2756H16.5896C17.3045 18.2846 17.8999 17.7044 17.9095 16.9897V1.7405C17.8999 1.02617 17.3037 0.44774 16.5896 0.457144Z" fill="#0D0F15"/>
</svg>
