<svg width="17" height="18" viewBox="0 0 17 18" fill="none" xmlns="http://www.w3.org/2000/svg">
<path d="M8.5 0.5C3.80558 0.5 0 4.30558 0 9C0 13.6944 3.80558 17.5 8.5 17.5C12.9176 17.5 16.5476 14.1303 16.9608 9.82074C16.9801 9.62017 16.877 9.42765 16.6995 9.33241C16.5219 9.23716 16.3045 9.2578 16.1481 9.38477C15.2884 10.0824 14.1937 10.5 13 10.5C10.2386 10.5 8 8.26142 8 5.5C8 3.8599 8.78915 2.40423 10.0106 1.49167C10.1721 1.37101 10.2453 1.16516 10.1963 0.969613C10.1473 0.774061 9.98572 0.627057 9.78641 0.596784C9.36662 0.533022 8.93701 0.5 8.5 0.5Z" fill="black"/>
</svg>
