<svg width="24" height="24" viewBox="0 0 24 24" fill="none" xmlns="http://www.w3.org/2000/svg">
<path d="M9.56241 1.48622C10.5834 -0.495406 13.4166 -0.495406 14.4375 1.48622C15.051 2.67695 16.435 3.25021 17.7108 2.842C19.8339 2.16269 21.8374 4.1661 21.158 6.28925C20.7497 7.56499 21.323 8.94896 22.5137 9.56241C24.4954 10.5834 24.4954 13.4166 22.5137 14.4375C21.323 15.051 20.7497 16.435 21.158 17.7108C21.8374 19.8339 19.8339 21.8374 17.7108 21.158C16.435 20.7497 15.051 21.323 14.4375 22.5137C13.4166 24.4954 10.5834 24.4954 9.56241 22.5137C8.94896 21.323 7.56499 20.7497 6.28925 21.158C4.16611 21.8374 2.16269 19.8339 2.842 17.7108C3.25021 16.435 2.67695 15.051 1.48621 14.4375C-0.495404 13.4166 -0.495404 10.5834 1.48621 9.56241C2.67695 8.94896 3.25021 7.56499 2.842 6.28925C2.16269 4.1661 4.16611 2.16269 6.28925 2.842C7.56499 3.25021 8.94896 2.67695 9.56241 1.48622Z" fill="url(#paint0_linear_780_8501)"/>
<defs>
<linearGradient id="paint0_linear_780_8501" x1="25.1111" y1="1.28571" x2="0.902312" y2="2.00462" gradientUnits="userSpaceOnUse">
<stop stop-color="#00FFF9"/>
<stop offset="0.182292" stop-color="#00C5FF"/>
<stop offset="1" stop-color="#0078FF"/>
</linearGradient>
</defs>
</svg>
