<svg width="24" height="16" viewBox="0 0 24 16" fill="none" xmlns="http://www.w3.org/2000/svg">
<path d="M23.4989 2.47057C23.3599 1.99513 23.0945 1.56196 22.7287 1.21292C22.3627 0.86388 21.9085 0.610785 21.4101 0.478095C19.5395 1.37091e-05 12.0107 1.35367e-05 12.0107 1.35367e-05C12.0107 1.35367e-05 4.50089 -0.00952884 2.61119 0.478095C2.11276 0.610785 1.65865 0.86388 1.29275 1.21292C0.92684 1.56196 0.661512 1.99513 0.522411 2.47057C0.167799 4.29751 -0.00702607 6.15205 0.000216073 8.01003C-0.00565697 9.86099 0.169163 11.7084 0.522411 13.5285C0.661512 14.0039 0.92684 14.4371 1.29275 14.7861C1.65865 15.1352 2.11276 15.3883 2.61119 15.5209C4.47988 16 12.0107 16 12.0107 16C12.0107 16 19.5195 16 21.4101 15.5209C21.9085 15.3883 22.3627 15.1352 22.7287 14.7861C23.0945 14.4371 23.3599 14.0039 23.4989 13.5285C23.8448 11.7078 24.0123 9.86033 23.9992 8.01003C24.0136 6.15272 23.8461 4.29817 23.4989 2.47057ZM9.60779 11.4368V4.5728L15.8741 8.01003L9.60779 11.4368Z" fill="#6E6E73"/>
</svg>
