<svg width="50" height="54" viewBox="0 0 50 54" fill="none" xmlns="http://www.w3.org/2000/svg">
<path d="M42.0478 18.0717V35.932C42.0478 36.6344 41.6711 37.2882 41.0625 37.6394L27.1023 45.6985C27.1023 45.6985 27.1016 45.6992 27.1003 45.6992L27.0951 45.7024L26.5166 46.0372C26.5166 46.0372 26.514 46.0379 26.514 46.0392L26.5087 46.0412C26.5087 46.0412 26.5061 46.0431 26.5041 46.0444L25.5935 46.5692C25.5764 46.5797 25.56 46.5882 25.5437 46.5967C24.9449 46.921 24.2137 46.9106 23.6214 46.5692L20.0239 44.4924C33.6434 40.7494 33.1475 28.2503 33.1475 28.2503C33.1475 25.3754 31.7271 22.8327 29.5506 21.2859C29.5428 21.2813 29.5362 21.2767 29.529 21.2715C29.5074 21.2558 29.4871 21.242 29.4661 21.2276C29.4602 21.2243 29.455 21.2217 29.4504 21.2171C28.6983 20.6897 28.0058 20.0857 27.3847 19.4128C27.3762 19.4036 27.3683 19.3938 27.3598 19.3853C27.308 19.3303 27.2589 19.2752 27.2084 19.2182C27.1776 19.1822 27.1455 19.1468 27.1147 19.1108C27.0767 19.0669 27.0381 19.023 27.0014 18.9771C26.149 17.9688 25.45 16.8262 24.9396 15.584C24.9344 15.5736 24.9311 15.5631 24.9265 15.5533C24.9134 15.5211 24.897 15.493 24.8767 15.4681H24.8761L24.6074 15.3384H24.6068C24.557 15.3384 24.5072 15.3495 24.462 15.3705C24.3886 15.4052 24.3257 15.4648 24.2897 15.5539C23.778 16.8066 23.0737 17.9603 22.2141 18.9778C21.5066 19.817 20.6922 20.5626 19.7946 21.1962C19.7514 21.2269 19.7068 21.2571 19.6636 21.2866C19.6603 21.2892 19.6577 21.2925 19.6531 21.2925C17.4819 22.8413 16.0661 25.3807 16.0661 28.2509C16.0661 28.2509 14.0652 14.1093 28.9793 9.38818L34.8031 12.7518L41.0612 16.3656C41.6698 16.7162 42.0465 17.37 42.0465 18.073L42.0478 18.0717Z" fill="url(#paint0_linear_1205_1514)"/>
<path d="M49.2123 18.0709V35.9312C49.2123 39.1965 47.4709 42.2135 44.6432 43.8455L29.1748 52.776C26.3472 54.4081 22.8643 54.4081 20.036 52.776L7.16797 45.3459C10.8493 45.6649 14.0092 45.5732 16.7215 45.1755L22.4987 48.5116C23.7986 49.2611 25.4129 49.2611 26.7134 48.5109L42.1811 39.5811C43.4809 38.8309 44.2881 37.4315 44.2881 35.9312V18.0709C44.2881 17.911 44.2796 17.7505 44.2599 17.5939C44.142 16.5542 43.6369 15.5957 42.8592 14.9084C42.8572 14.9058 42.8546 14.9051 42.8533 14.9025C42.736 14.8009 42.6135 14.7046 42.4844 14.6162C42.4753 14.6083 42.4654 14.6024 42.4562 14.5952C42.4445 14.5867 42.4353 14.5795 42.4307 14.5762C42.4287 14.5743 42.4281 14.5743 42.4274 14.5736C42.3482 14.5212 42.2663 14.4701 42.1824 14.4216L36.6476 11.2251L32.0929 8.59526C34.5662 8.10454 37.4141 7.84248 40.6952 7.87589H40.6958L44.6445 10.1559C47.4722 11.7879 49.2136 14.8049 49.2136 18.0702L49.2123 18.0709Z" fill="url(#paint1_linear_1205_1514)"/>
<path d="M40.6947 7.87586C37.4136 7.84244 34.5656 8.10451 32.0924 8.59522L26.7135 5.4891C25.4137 4.7396 23.7994 4.7396 22.4989 5.48976L7.03119 14.4203C5.73069 15.1717 4.92419 16.5698 4.92419 18.0702V35.9305C4.92419 37.0069 5.33891 38.0309 6.05303 38.8008C6.055 38.8027 6.05631 38.8034 6.05828 38.8054C6.33606 39.1028 6.65775 39.3629 7.01939 39.5719C7.02464 39.5745 7.02791 39.5778 7.02988 39.5791H7.03184L11.7713 42.3164L16.7223 45.1755C14.01 45.5732 10.8495 45.6649 7.16877 45.3458H7.16812L4.56975 43.8448C1.74207 42.2128 0 39.1958 0 35.9305V18.0702C0 14.8048 1.74273 11.7878 4.56975 10.1558L20.0374 1.224C22.8658 -0.408002 26.3493 -0.408002 29.1763 1.224L40.6953 7.8752L40.6947 7.87586Z" fill="url(#paint2_linear_1205_1514)"/>
<path d="M20.0242 44.4922L13.8676 40.938L8.15399 37.6399C7.54469 37.2887 7.16797 36.6349 7.16797 35.9326V18.0722C7.16797 17.3692 7.54469 16.7154 8.15399 16.3642L22.6861 7.97357L22.6933 7.96898L22.9593 7.81502H22.9619C22.9619 7.81502 22.9619 7.81305 22.9626 7.81305L23.6217 7.43241C24.229 7.08058 24.9844 7.08058 25.5937 7.43175L28.9796 9.38675C14.0662 14.1078 16.0664 28.2495 16.0664 28.2495C16.0664 29.2244 16.2308 30.1612 16.5335 31.0359C16.6259 31.3045 16.7314 31.5659 16.8493 31.8221C16.9292 31.9944 17.0157 32.1647 17.1055 32.3318C17.1107 32.3423 17.1166 32.3514 17.1218 32.3613C17.1467 32.4071 17.1716 32.4523 17.1978 32.4969C17.1985 32.4969 17.1985 32.4976 17.1985 32.4976C17.2443 32.5775 17.2922 32.6561 17.3393 32.7347C17.3485 32.7504 17.3583 32.7649 17.3675 32.7806C17.3832 32.8048 17.3976 32.8291 17.414 32.852C17.4383 32.8907 17.4632 32.9293 17.4881 32.9673C17.5136 33.006 17.5398 33.044 17.5654 33.0826C17.5726 33.0931 17.5798 33.1036 17.587 33.1134C17.6152 33.1527 17.6427 33.192 17.6715 33.2313H17.6722C17.6892 33.2569 17.7082 33.2818 17.7265 33.306C17.7514 33.3414 17.7783 33.3768 17.8039 33.4108C17.834 33.4502 17.8635 33.4895 17.8936 33.5268C17.9296 33.5714 17.965 33.6166 18.0024 33.6605C18.0744 33.7502 18.1498 33.8367 18.2258 33.9219C18.2638 33.9651 18.3024 34.007 18.3417 34.049C18.404 34.1171 18.4675 34.1839 18.5311 34.2495C18.5802 34.2986 18.628 34.3458 18.6785 34.3942C18.8272 34.5377 18.9805 34.6753 19.1391 34.8083C19.7654 35.3305 20.4684 35.7662 21.2284 36.0931C21.2389 36.0977 21.248 36.1016 21.2585 36.1062C21.3443 36.1429 21.4308 36.1782 21.5173 36.213C21.6051 36.2457 21.6909 36.2785 21.7807 36.3099C21.8128 36.3211 21.8455 36.3322 21.8776 36.3433C21.9432 36.365 22.0074 36.3866 22.0735 36.4062C22.0965 36.4141 22.1207 36.4207 22.1443 36.4279C22.2852 36.4711 22.4273 36.5084 22.5721 36.5438C22.6383 36.5602 22.7064 36.5759 22.7752 36.591C22.808 36.5989 22.842 36.6054 22.8768 36.6126C22.9704 36.6316 23.0641 36.6493 23.1578 36.665C23.1926 36.6709 23.2286 36.6768 23.2627 36.6821C23.3059 36.6886 23.3485 36.6958 23.3937 36.7017C23.6354 36.7364 23.8792 36.76 24.1262 36.7738C24.2854 36.7823 24.4452 36.7875 24.6064 36.7875H24.607C25.9829 36.7869 27.284 36.4613 28.4345 35.8834C31.2294 34.4801 33.1471 31.5882 33.1471 28.2488C33.1471 28.2488 33.6424 40.748 20.0235 44.4909L20.0242 44.4922Z" fill="url(#paint3_linear_1205_1514)"/>
<defs>
<linearGradient id="paint0_linear_1205_1514" x1="29.0127" y1="11.5633" x2="29.0127" y2="54.6939" gradientUnits="userSpaceOnUse">
<stop stop-color="#0078FF"/>
<stop offset="0.67" stop-color="#00C5FF"/>
<stop offset="1" stop-color="#00FFF9"/>
</linearGradient>
<linearGradient id="paint1_linear_1205_1514" x1="28.1895" y1="11.5631" x2="28.1895" y2="54.6937" gradientUnits="userSpaceOnUse">
<stop stop-color="#0078FF"/>
<stop offset="0.67" stop-color="#00C5FF"/>
<stop offset="1" stop-color="#00FFF9"/>
</linearGradient>
<linearGradient id="paint2_linear_1205_1514" x1="42.5794" y1="2.43954" x2="1.52271" y2="3.5291" gradientUnits="userSpaceOnUse">
<stop stop-color="#00FFF9"/>
<stop offset="0.182292" stop-color="#00C5FF"/>
<stop offset="1" stop-color="#0078FF"/>
</linearGradient>
<linearGradient id="paint3_linear_1205_1514" x1="20.1592" y1="-0.706004" x2="20.1592" y2="40.6897" gradientUnits="userSpaceOnUse">
<stop stop-color="#00FFF9"/>
<stop offset="0.33" stop-color="#00C5FF"/>
<stop offset="1" stop-color="#0078FF"/>
</linearGradient>
</defs>
</svg>
