<svg width="56" height="56" viewBox="0 0 56 56" fill="none" xmlns="http://www.w3.org/2000/svg">
<g clip-path="url(#clip0_101_1894)">
<path d="M42.5071 21.8784L42.2098 21.5844L42.1546 21.5387C37.8416 17.9584 35.7443 12.5871 36.4005 6.80174L37.1721 0L30.5541 3.57092C23.5208 7.36571 18.8903 14.396 18.111 22.2569L10.685 20.0886L10.1053 21.4127C7.76908 26.7456 6.61467 31.8648 6.67405 36.6286C6.739 41.8247 8.82182 46.6971 12.5389 50.3483C16.2486 53.9927 21.1568 55.9999 26.3585 55.9999H29.5411C40.335 55.9999 49.1653 47.3025 49.2255 36.6111C49.2593 30.5865 47.0611 25.7667 42.5071 21.8784ZM27.1536 52.711C23.1367 52.711 19.8277 49.4588 19.7777 45.461C19.7572 43.823 20.0844 42.0619 20.7518 40.2106L25.419 41.5731L25.4387 39.4006C25.4673 36.2466 27.0592 33.3341 29.6483 31.6008C29.6406 34.809 30.9762 37.7411 33.4192 39.7975L33.5153 39.8923L33.6072 39.9765C35.3584 41.4637 36.1335 43.1578 36.1207 45.4691C36.098 49.4626 32.7894 52.711 28.7451 52.711H27.1536ZM38.2419 50.227C38.9789 48.8021 39.3998 47.1918 39.4092 45.4879C39.4275 42.2285 38.2419 39.6189 35.7848 37.5113L35.6319 37.36L35.5768 37.3147C33.6093 35.681 32.6912 33.3217 32.9915 30.6715L33.5546 25.7069L28.8609 28.2396C25.3959 30.1093 23.0222 33.4486 22.3467 37.2502L18.854 36.2304L18.2742 37.554C17.0587 40.3285 16.458 43.0027 16.4896 45.5025C16.5101 47.1598 16.91 48.7564 17.6457 50.1928C13.0968 47.3281 10.0343 42.3003 9.96256 36.5876C9.91386 32.6851 10.7871 28.4776 12.5594 24.062L21.2645 26.6037L21.2841 24.4312C21.3525 16.9176 25.5028 10.0334 32.1157 6.4655L33.1953 5.88274L33.1329 6.43132C32.3524 13.3138 34.8539 19.7208 39.9983 24.0227L40.2384 24.2603L40.3303 24.3444C44.1836 27.6167 45.9652 31.5089 45.937 36.5927C45.9046 42.3259 42.8318 47.3687 38.2419 50.227Z" fill="white"/>
</g>
<defs>
<clipPath id="clip0_101_1894">
<rect width="56" height="56" fill="white"/>
</clipPath>
</defs>
</svg>
