<svg width="56" height="56" viewBox="0 0 56 56" fill="none" xmlns="http://www.w3.org/2000/svg">
<path d="M50.6775 12.2527L33.1336 1.3242C30.2998 -0.441039 25.7021 -0.441763 22.867 1.3242L5.32308 12.2527C2.48931 14.0179 2.48801 16.882 5.32308 18.6479L22.867 29.5765C25.7008 31.3417 30.2985 31.3424 33.1336 29.5765L50.6775 18.6479C53.5112 16.8827 53.5125 14.0187 50.6775 12.2527ZM30.6474 24.4311C29.2018 25.3484 26.8521 25.3446 25.4127 24.4311L11.2789 15.4618L25.4127 6.51983C26.8582 5.60528 29.2079 5.60919 30.6474 6.51983L44.7812 15.4618L30.6474 24.4311Z" fill="white"/>
<path d="M50.6776 24.9924L50.3116 24.7644L31.8766 36.3963L31.8698 36.3953L30.6476 37.1708C29.202 38.0881 26.8523 38.0844 25.4128 37.1708L11.279 28.2015L11.2822 28.1995L5.75907 24.7207L5.32308 24.9923C2.48931 26.7575 2.48801 29.6216 5.32308 31.3875L22.867 42.316C25.7008 44.0813 30.2985 44.082 33.1335 42.316L50.6775 31.3875C53.5114 29.6224 53.5127 26.7584 50.6776 24.9924Z" fill="white"/>
<path d="M50.6775 37.3517L50.3114 37.1237L31.8764 48.7555L31.8696 48.7545L30.6474 49.53C29.2018 50.4474 26.8521 50.4436 25.4127 49.53L11.279 40.5607L11.2822 40.5587L5.75907 37.0801L5.32308 37.3517C2.48931 39.1169 2.48801 41.9809 5.32308 43.7469L22.867 54.6754C25.7008 56.4407 30.2985 56.4414 33.1336 54.6754L50.6775 43.7469C53.5112 41.9817 53.5125 39.1176 50.6775 37.3517Z" fill="white"/>
</svg>
