<svg width="56" height="56" viewBox="0 0 56 56" fill="none" xmlns="http://www.w3.org/2000/svg">
<g clip-path="url(#clip0_101_1900)">
<path d="M18.0426 36.2035H18.0452C18.0473 36.2035 18.0494 36.2031 18.0516 36.2031H47.7968C48.5291 36.2031 49.173 35.7173 49.3742 35.0132L55.9367 12.0445C56.0782 11.5493 55.979 11.017 55.6693 10.606C55.3591 10.1949 54.8742 9.95312 54.3593 9.95312H14.2589L13.0861 4.67535C12.9191 3.92468 12.2534 3.39062 11.4844 3.39062H1.64062C0.734436 3.39062 0 4.12506 0 5.03125C0 5.93744 0.734436 6.67187 1.64062 6.67187H10.1685C10.3761 7.60711 15.7808 31.9285 16.0918 33.3277C14.3482 34.0857 13.125 35.8241 13.125 37.8437C13.125 40.5576 15.333 42.7656 18.0469 42.7656H47.7968C48.703 42.7656 49.4375 42.0312 49.4375 41.125C49.4375 40.2188 48.703 39.4844 47.7968 39.4844H18.0469C17.1424 39.4844 16.4062 38.7482 16.4062 37.8437C16.4062 36.9405 17.1398 36.2057 18.0426 36.2035ZM52.1842 13.2344L46.5591 32.9219H19.3628L14.9878 13.2344H52.1842Z" fill="white"/>
<path d="M16.4062 47.6875C16.4062 50.4014 18.6143 52.6094 21.3281 52.6094C24.042 52.6094 26.25 50.4014 26.25 47.6875C26.25 44.9736 24.042 42.7656 21.3281 42.7656C18.6143 42.7656 16.4062 44.9736 16.4062 47.6875ZM21.3281 46.0469C22.2326 46.0469 22.9687 46.783 22.9687 47.6875C22.9687 48.592 22.2326 49.3281 21.3281 49.3281C20.4236 49.3281 19.6875 48.592 19.6875 47.6875C19.6875 46.783 20.4236 46.0469 21.3281 46.0469Z" fill="white"/>
<path d="M39.5938 47.6875C39.5938 50.4014 41.8018 52.6094 44.5156 52.6094C47.2295 52.6094 49.4375 50.4014 49.4375 47.6875C49.4375 44.9736 47.2295 42.7656 44.5156 42.7656C41.8018 42.7656 39.5938 44.9736 39.5938 47.6875ZM44.5156 46.0469C45.4201 46.0469 46.1562 46.783 46.1562 47.6875C46.1562 48.592 45.4201 49.3281 44.5156 49.3281C43.6111 49.3281 42.875 48.592 42.875 47.6875C42.875 46.783 43.6111 46.0469 44.5156 46.0469Z" fill="white"/>
<g clip-path="url(#clip1_101_1900)">
<path d="M39.8377 22.6037C39.7746 22.4746 39.7746 22.3266 39.8377 22.1975L40.4225 21.0012C40.7481 20.335 40.4901 19.5411 39.8352 19.1936L38.6589 18.5695C38.532 18.5021 38.445 18.3823 38.4202 18.2409L38.1901 16.9293C38.062 16.199 37.3865 15.7082 36.6525 15.8121L35.334 15.9986C35.1917 16.0187 35.051 15.9729 34.9477 15.8731L33.9907 14.9472C33.4578 14.4317 32.6229 14.4316 32.0901 14.9472L31.133 15.8732C31.0297 15.9731 30.889 16.0187 30.7467 15.9987L29.4282 15.8122C28.694 15.7083 28.0187 16.1991 27.8906 16.9293L27.6606 18.2409C27.6357 18.3824 27.5487 18.5022 27.4218 18.5695L26.2455 19.1937C25.5906 19.5411 25.3326 20.3351 25.6582 21.0012L26.243 22.1976C26.3061 22.3267 26.3061 22.4747 26.243 22.6038L25.6582 23.8001C25.3326 24.4662 25.5906 25.2602 26.2455 25.6077L27.4218 26.2318C27.5487 26.2991 27.6357 26.4189 27.6606 26.5604L27.8906 27.872C28.0072 28.5368 28.5773 29.003 29.2324 29.003C29.297 29.003 29.3624 28.9984 29.4282 28.9891L30.7467 28.8026C30.8889 28.7824 31.0297 28.8283 31.133 28.9281L32.0901 29.854C32.3566 30.1118 32.6984 30.2407 33.0404 30.2406C33.3822 30.2406 33.7243 30.1117 33.9906 29.854L34.9477 28.9281C35.051 28.8283 35.1917 28.7826 35.334 28.8026L36.6525 28.9891C37.3868 29.093 38.062 28.6022 38.1901 27.872L38.4202 26.5604C38.445 26.4189 38.532 26.2991 38.6589 26.2318L39.8352 25.6077C40.4901 25.2602 40.7481 24.4662 40.4225 23.8001L39.8377 22.6037ZM39.4113 24.8087L38.235 25.4329C37.86 25.6319 37.6028 25.9859 37.5294 26.4041L37.2994 27.7157C37.256 27.9628 37.0276 28.1287 36.7792 28.0937L35.4607 27.9071C35.0402 27.8476 34.6241 27.9829 34.3189 28.2781L33.3619 29.2039C33.1816 29.3783 32.8991 29.3783 32.7188 29.2039L31.7618 28.2781C31.5038 28.0286 31.1667 27.8934 30.8147 27.8934C30.7502 27.8934 30.6851 27.8979 30.62 27.9071L29.3016 28.0936C29.0533 28.1287 28.8247 27.9627 28.7813 27.7156L28.5512 26.404C28.4779 25.9858 28.2207 25.6318 27.8456 25.4328L26.6693 24.8087C26.4477 24.6911 26.3604 24.4225 26.4706 24.1972L27.0554 23.0008C27.2418 22.6193 27.2418 22.1818 27.0554 21.8004L26.4706 20.604C26.3604 20.3786 26.4477 20.11 26.6693 19.9925L27.8456 19.3683C28.2206 19.1693 28.4779 18.8153 28.5512 18.3971L28.7813 17.0855C28.8246 16.8384 29.053 16.6725 29.3015 16.7076L30.62 16.8941C31.0403 16.9536 31.4565 16.8183 31.7617 16.5231L32.7188 15.5973C32.899 15.4229 33.1815 15.4229 33.3618 15.5973L34.3189 16.5231C34.6241 16.8183 35.0402 16.9536 35.4606 16.8941L36.7791 16.7076C37.0274 16.6724 37.256 16.8384 37.2993 17.0855L37.5294 18.3972C37.6027 18.8154 37.8599 19.1694 38.235 19.3683L39.4113 19.9925C39.6329 20.11 39.7202 20.3786 39.61 20.604L39.0252 21.8003C38.8388 22.1818 38.8388 22.6193 39.0252 23.0008L39.61 24.1971C39.7202 24.4225 39.6329 24.6912 39.4113 24.8087Z" fill="white"/>
<path d="M36.3439 19.0973C36.1673 18.9207 35.881 18.9207 35.7044 19.0973L29.736 25.0658C29.5594 25.2423 29.5594 25.5286 29.736 25.7052C29.8242 25.7935 29.94 25.8377 30.0557 25.8377C30.1714 25.8377 30.2871 25.7936 30.3754 25.7052L36.3438 19.7368C36.5205 19.5602 36.5205 19.2739 36.3439 19.0973Z" fill="white"/>
<path d="M31.2312 18.3301C30.317 18.3301 29.5732 19.0739 29.5732 19.9881C29.5732 20.9023 30.317 21.6461 31.2312 21.6461C32.1455 21.6461 32.8892 20.9023 32.8892 19.9881C32.8892 19.0739 32.1455 18.3301 31.2312 18.3301ZM31.2312 20.7417C30.8157 20.7417 30.4776 20.4036 30.4776 19.988C30.4776 19.5725 30.8157 19.2344 31.2312 19.2344C31.6468 19.2344 31.9849 19.5725 31.9849 19.988C31.9849 20.4036 31.6468 20.7417 31.2312 20.7417Z" fill="white"/>
<path d="M34.8484 23.1543C33.9342 23.1543 33.1904 23.8981 33.1904 24.8123C33.1904 25.7265 33.9342 26.4703 34.8484 26.4703C35.7626 26.4703 36.5064 25.7265 36.5064 24.8123C36.5064 23.8981 35.7626 23.1543 34.8484 23.1543ZM34.8484 25.5659C34.4329 25.5659 34.0948 25.2278 34.0948 24.8123C34.0948 24.3967 34.4328 24.0587 34.8484 24.0587C35.264 24.0587 35.602 24.3967 35.602 24.8123C35.602 25.2278 35.264 25.5659 34.8484 25.5659Z" fill="white"/>
</g>
</g>
<defs>
<clipPath id="clip0_101_1900">
<rect width="56" height="56" fill="white"/>
</clipPath>
<clipPath id="clip1_101_1900">
<rect width="15.68" height="15.68" fill="white" transform="translate(25.2002 14.5605)"/>
</clipPath>
</defs>
</svg>
