<svg width="56" height="56" viewBox="0 0 56 56" fill="none" xmlns="http://www.w3.org/2000/svg">
<g clip-path="url(#clip0_101_1928)">
<g clip-path="url(#clip1_101_1928)">
<path d="M20.1236 32.6188C20.1973 34.202 20.3092 35.616 20.4575 36.8592C20.7593 39.2864 21.2255 41.2064 21.8563 42.6463C22.4872 44.0724 23.31 45.0734 24.2973 45.6495C25.2985 46.2255 26.4915 46.5135 27.9041 46.5135C28.9463 46.5135 29.8787 46.349 30.6879 46.006C31.4971 45.677 32.1964 45.1696 32.8136 44.5113C33.417 43.8393 33.9244 43.0028 34.3221 41.9742C34.7335 40.9594 35.0626 39.7801 35.3094 38.4499C35.5701 37.1058 35.7482 35.5973 35.8443 33.9106C35.9403 32.2376 35.9814 30.3725 35.9814 28.3428C35.9814 25.8744 35.9129 23.7076 35.7757 21.8288C35.6387 19.9363 35.4329 18.3045 35.1586 16.9057C34.8706 15.5205 34.5141 14.3413 34.1027 13.3812C33.6912 12.4213 33.1838 11.6396 32.5804 11.0773C31.9908 10.5013 31.3188 10.0898 30.5645 9.8431C29.8103 9.61002 28.9738 9.48653 28.0549 9.48653C26.4778 9.48653 25.1613 9.87055 24.1191 10.6247C23.0768 11.3927 22.2678 12.531 21.6506 14.0669C21.0473 15.5891 20.6221 17.4817 20.3889 19.758C20.2867 20.7012 20.2056 21.7079 20.1457 22.778M46.5958 27.7944C46.5958 31.9495 46.2667 35.6933 45.5947 39.0394C44.9227 42.3857 43.8257 45.238 42.3172 47.5968C40.7949 49.9556 38.8338 51.7659 36.4066 53.0137C33.9792 54.2754 31.0033 54.9062 27.4927 54.9062C23.9271 54.9062 20.9787 54.3028 18.6472 53.0823C16.3159 51.8618 14.4646 50.1064 13.107 47.8162C11.7356 45.5261 10.7756 42.7285 10.2271 39.4236C9.6785 36.1185 9.4043 32.3747 9.4043 28.2057C9.4043 24.0779 9.74719 20.3341 10.4329 16.9742C11.1184 13.6143 12.2156 10.7618 13.7242 8.40317C15.2463 6.04439 17.2074 4.23413 19.6347 2.98627C22.062 1.72452 25.0242 1.09375 28.5074 1.09375C32.073 1.09375 35.0215 1.69717 37.3665 2.91758C39.7116 4.13821 41.5766 5.89356 42.9343 8.18377C44.3056 10.4739 45.252 13.2715 45.7867 16.5765C46.3215 19.8815 46.5958 23.6252 46.5958 27.7944V27.7944Z" stroke="white" stroke-width="3" stroke-miterlimit="2.613" stroke-linecap="round" stroke-linejoin="round"/>
<path d="M20.0181 27.6992H20.0193" stroke="white" stroke-width="2.1875" stroke-miterlimit="2.613" stroke-linecap="round" stroke-linejoin="round"/>
</g>
</g>
<defs>
<clipPath id="clip0_101_1928">
<rect width="56" height="56" fill="white"/>
</clipPath>
<clipPath id="clip1_101_1928">
<rect width="56" height="56" fill="white"/>
</clipPath>
</defs>
</svg>
